<svg width="1200" height="882" viewBox="0 0 1200 882" fill="none" xmlns="http://www.w3.org/2000/svg">
<path d="M0 648.711V882H453.967C528.675 810.76 594.805 793.736 642.67 792.112C688.985 790.551 712.928 803.573 785.844 801.792C835.904 800.567 908.961 798.597 930.105 773.988C954.068 746.1 898.57 690.69 825.272 663.043C761.297 638.947 714.78 647.632 632.924 641.576C411.257 625.16 362.223 532.297 223.762 540.678C168.888 543.999 88.9247 563.883 0 648.711Z" fill="#3768A9"/>
<path d="M3.90665 647.726C20.137 668.396 102.155 648.941 198.731 675.342C324.567 709.747 313.955 777.351 405.296 786.78C485.34 794.972 511.035 744.822 619.654 740.505C767.942 734.597 856.524 822.62 911.639 806.067C972.614 787.723 902.135 669.067 892.509 652.776C860.552 598.864 846.657 566.534 793.456 542.281C628.031 466.851 342.026 488.076 164.66 546.471C79.6215 574.538 -15.7671 622.75 3.90665 647.726Z" fill="#429B53"/>
<path d="M1.30884 450.549V647.726C122.13 559.2 196.254 545.057 242.67 550.599C329.36 560.918 338.039 642.006 419.694 645.191C496.698 648.198 523.721 577.482 642.187 571.762C693.153 569.3 704.007 581.609 784.958 579.933C834.877 578.886 907.793 577.241 928.816 556.445C952.698 532.873 897.362 486.033 824.265 462.66C760.471 442.273 714.096 449.648 632.461 444.525C411.418 430.655 362.626 352.165 224.446 359.247C169.734 362.055 89.9919 378.859 1.30884 450.549Z" fill="#D62A45"/>
<path d="M308.317 356.115C270.62 392.29 281.575 453.954 360.673 473.807C449.275 496.048 584.595 456.448 636.71 479.171C679.199 497.704 603.101 530.107 647.845 561.159C684.092 586.303 772.694 591.709 853.363 596.591C921.506 600.718 1045.33 603.987 1200.06 583.296V273.089C745.792 249.339 386.831 280.768 308.317 356.115Z" fill="#3768A9"/>
<path d="M1.30884 228.208V450.549C80.5477 419.12 196.838 383.773 309.243 399.896C399.154 412.803 421.265 449.261 492.489 446.841C580.85 443.834 635.159 382.934 711.619 313.004C773.56 256.358 824.648 209.612 797.382 182.887C762.646 148.975 591.099 136.937 1.30884 228.208Z" fill="#429B53"/>
<path d="M715.304 227.758C693.637 274.367 769.049 355.476 838.864 358.409C882.944 360.263 893.778 329.662 935.683 331.003C1024.83 333.873 1052.76 474.938 1142.41 478.228C1167.18 479.14 1187.92 469.218 1200 462.147V161.127C1147.34 158.414 756.041 140.133 715.304 227.758Z" fill="#F3A628"/>
<path d="M3.8461 273.644C32.219 318.693 247.342 333.706 397.06 291.58C465.304 272.377 466.371 256.4 519.795 250.523C661.74 234.902 737.435 338.619 853.303 327.399C952.114 317.823 1045.53 228.04 1018.67 165.915C977.064 69.773 638.965 20.2929 379.823 68.3692C162.888 108.609 -28.1918 222.666 3.8461 273.644Z" fill="#D62A45"/>
<path d="M408.337 85.8124C416.613 66.7034 522.835 72.9683 539.227 48.9773C549.738 33.6398 518.023 13.7765 491.22 0H1200.04V197.187C1159.54 209.979 1115.89 219.847 1070.28 226.521C1024.08 233.184 1001.05 236.589 977.648 234.777C879.36 227.129 891.059 146.607 787.757 123.412C692.308 101.978 622.473 157.325 498.731 130.547C449.436 119.84 402.396 99.5261 408.337 85.8124Z" fill="#429B53"/>
<path d="M1.30884 242.267C18.9689 242.812 50.9866 242.812 84.4542 235.919C207.088 210.702 175.453 128.839 268.345 106.985C371.043 82.8266 462.626 166.575 637.696 149.792C745.066 139.504 835.683 95.3355 825.977 71.5121C817.922 51.8478 742.086 48.0868 740.656 28.4435C739.791 16.7623 765.908 6.64205 787.797 0H1.30884V242.267Z" fill="#3768A9"/>
<path d="M1200 471.146C1147.14 532.559 1073.86 597.156 995.51 590.011C938.24 584.815 916.23 535.345 874.265 543.727C825.634 553.554 791.704 630.189 808.115 693.54C821.99 746.823 873.822 799.184 931.917 803.542C987.999 807.733 1008.64 764.161 1061.14 766.089C1095.49 767.346 1144.06 788.089 1200.08 881.969L1200 471.146Z" fill="#F3A628"/>
<path d="M1200 882V708.73C1092.51 711.15 1046.74 728.133 1025.35 744.424C1003.97 760.714 997.161 783.668 955.094 793.663C935.642 798.314 917.136 798.168 904.873 798C855.94 797.33 827.265 784.035 801.168 777.403C711.035 754.491 587.515 794.721 564.66 802.17C483.286 828.738 446.114 865.982 432.34 882H1200Z" fill="#D62A45"/>
</svg>
