<svg width="40" height="40" viewBox="0 0 40 40" fill="none" xmlns="http://www.w3.org/2000/svg">
<path d="M30 5H10C7.24333 5 5 7.24333 5 10V30C5 32.7567 7.24333 35 10 35H30C32.7567 35 35 32.7567 35 30V10C35 7.24333 32.7567 5 30 5ZM20.4683 17.9917C24.7567 19.0033 26.025 21.58 25.7833 23.6533C25.4783 26.2717 22.94 28.2467 19.8483 28.32L19.4717 30H16.0567L16.5817 27.6467C14.5283 26.8167 12.9017 25.5017 12.6517 25.29L14.8 22.7417C15.5483 23.3683 17.885 25 19.6767 25C21.37 25 22.0117 24.1583 22.095 23.4333C22.19 22.62 21.4783 21.6567 19.7 21.2367C14.64 20.0433 14.6017 16.8967 14.7117 15.9617C14.9933 13.5383 17.4317 11.5683 20.1883 11.4833L20.5217 10H23.9367L23.5067 11.925C25.925 12.6433 27.2733 13.9683 27.3467 14.045L24.98 16.3917C24.9133 16.3267 23.315 14.8 20.37 14.8C19.0467 14.8 18.3183 15.225 18.155 15.9317C17.955 16.8067 18.91 17.625 20.4683 17.9917Z" fill="#E8B85B"/>
</svg>
