<svg width="100" height="107" viewBox="0 0 100 107" fill="none" xmlns="http://www.w3.org/2000/svg">
<g clip-path="url(#clip0_130_25)">
<path d="M79.1667 14.0896H61.75C60 8.96177 55.4167 5.2485 50 5.2485C44.5833 5.2485 40 8.96177 38.25 14.0896H20.8333C16.25 14.0896 12.5 18.0681 12.5 22.9307V84.8184C12.5 89.681 16.25 93.6595 20.8333 93.6595H79.1667C83.75 93.6595 87.5 89.681 87.5 84.8184V22.9307C87.5 18.0681 83.75 14.0896 79.1667 14.0896ZM50 14.0896C52.2917 14.0896 54.1667 16.0789 54.1667 18.5102C54.1667 20.9415 52.2917 22.9307 50 22.9307C47.7083 22.9307 45.8333 20.9415 45.8333 18.5102C45.8333 16.0789 47.7083 14.0896 50 14.0896ZM41.6667 75.9773L25 58.2951L30.875 52.0621L41.6667 63.4672L69.125 34.3357L75 40.6129L41.6667 75.9773Z" fill="#4988DB"/>
</g>
<defs>
<clipPath id="clip0_130_25">
<rect width="100" height="106.093" fill="white" transform="translate(0 0.827957)"/>
</clipPath>
</defs>
</svg>
