<svg width="100" height="100" viewBox="0 0 100 100" fill="none" xmlns="http://www.w3.org/2000/svg">
<path fill-rule="evenodd" clip-rule="evenodd" d="M37.5 70.8333L50 58.5833C48.375 58.4167 47.1667 58.3333 45.8333 58.3333C34.7083 58.3333 12.5 63.9167 12.5 75V83.3333H50L37.5 70.8333ZM45.8333 50C55.0417 50 62.5 42.5417 62.5 33.3333C62.5 24.125 55.0417 16.6667 45.8333 16.6667C36.625 16.6667 29.1667 24.125 29.1667 33.3333C29.1667 42.5417 36.625 50 45.8333 50Z" fill="#128D56"/>
<path fill-rule="evenodd" clip-rule="evenodd" d="M64.4583 85.4167L50 70.8333L55.8333 64.9583L64.4583 73.625L85.8333 52.0833L91.6667 57.9583L64.4583 85.4167Z" fill="#128D56"/>
</svg>
